<?xml version="1.0" encoding="UTF-8"?>
<svg version="1.1" xmlns="http://www.w3.org/2000/svg" width="167" height="36">
<path d="M0 0 C55.11 0 110.22 0 167 0 C167 11.88 167 23.76 167 36 C111.89 36 56.78 36 0 36 C0 24.12 0 12.24 0 0 Z " fill="#FCFEFD" transform="translate(0,0)"/>
<path d="M0 0 C4.95 0 9.9 0 15 0 C15 4.29 15 8.58 15 13 C11.04 13 7.08 13 3 13 C3 14.32 3 15.64 3 17 C2.01 17 1.02 17 0 17 C0 11.39 0 5.78 0 0 Z " fill="#5574AB" transform="translate(32,12)"/>
<path d="M0 0 C4.95 0 9.9 0 15 0 C15 4.29 15 8.58 15 13 C10.05 13 5.1 13 0 13 C0 8.71 0 4.42 0 0 Z " fill="#426CAB" transform="translate(105,12)"/>
<path d="M0 0 C4.95 0 9.9 0 15 0 C15 4.29 15 8.58 15 13 C10.05 13 5.1 13 0 13 C0 8.71 0 4.42 0 0 Z " fill="#426CAB" transform="translate(69,12)"/>
<path d="M0 0 C4.95 0 9.9 0 15 0 C15 1.65 15 3.3 15 5 C12.5 7.3125 12.5 7.3125 10 9 C11.65 9.33 13.3 9.66 15 10 C15 10.99 15 11.98 15 13 C10.05 13 5.1 13 0 13 C0 8.71 0 4.42 0 0 Z " fill="#4D71AB" transform="translate(141,12)"/>
<path d="M0 0 C0.99 0 1.98 0 3 0 C3 5.61 3 11.22 3 17 C-1.95 17 -6.9 17 -12 17 C-12 12 -12 12 -10.13671875 10.015625 C-8.92435547 9.14164063 -8.92435547 9.14164063 -7.6875 8.25 C-6.88699219 7.65703125 -6.08648437 7.0640625 -5.26171875 6.453125 C-3 5 -3 5 0 4 C0 2.68 0 1.36 0 0 Z " fill="#5876AA" transform="translate(135,8)"/>
<path d="M0 0 C4.95 0 9.9 0 15 0 C15 0.99 15 1.98 15 3 C11.04 3 7.08 3 3 3 C3 5.31 3 7.62 3 10 C6.96 10 10.92 10 15 10 C15 10.99 15 11.98 15 13 C10.05 13 5.1 13 0 13 C0 8.71 0 4.42 0 0 Z " fill="#5071A8" transform="translate(87,12)"/>
<path d="M0 0 C0 3.3 0 6.6 0 10 C-0.33 9.34 -0.66 8.68 -1 8 C-5.29 8 -9.58 8 -14 8 C-14 5.69 -14 3.38 -14 1 C-11.85420251 0.83287252 -9.70836101 0.66631 -7.5625 0.5 C-5.77005859 0.36078125 -5.77005859 0.36078125 -3.94140625 0.21875 C-1 0 -1 0 0 0 Z " fill="#FCFEFF" transform="translate(104,14)"/>
<path d="M0 0 C5.43531453 0 6.27644237 0.45267455 10.3125 3.6875 C11.19550781 4.37199219 12.07851563 5.05648438 12.98828125 5.76171875 C15 8 15 8 15.29296875 10.76953125 C15.19628906 11.50558594 15.09960938 12.24164063 15 13 C14.01 13 13.02 13 12 13 C12 11.68 12 10.36 12 9 C11.4225 8.731875 10.845 8.46375 10.25 8.1875 C7.9674132 6.98280141 6.0262058 5.59201885 4 4 C3.67 6.97 3.34 9.94 3 13 C2.01 13 1.02 13 0 13 C0 8.71 0 4.42 0 0 Z " fill="#5175AF" transform="translate(14,12)"/>
<path d="M0 0 C4.95 0 9.9 0 15 0 C15 0.99 15 1.98 15 3 C11.04 3 7.08 3 3 3 C3 6.3 3 9.6 3 13 C2.01 13 1.02 13 0 13 C0 8.71 0 4.42 0 0 Z " fill="#4C72AD" transform="translate(50,12)"/>
<path d="M0 0 C2.97 0 5.94 0 9 0 C9 2.31 9 4.62 9 7 C6.03 7 3.06 7 0 7 C0 4.69 0 2.38 0 0 Z " fill="#FAFEFD" transform="translate(108,15)"/>
<path d="M0 0 C2.97 0 5.94 0 9 0 C9 2.31 9 4.62 9 7 C6.03 7 3.06 7 0 7 C0 4.69 0 2.38 0 0 Z " fill="#FAFEFD" transform="translate(72,15)"/>
<path d="M0 0 C2.97 0 5.94 0 9 0 C9 2.31 9 4.62 9 7 C6.03 7 3.06 7 0 7 C0 4.69 0 2.38 0 0 Z " fill="#FAFEFD" transform="translate(35,15)"/>
<path d="M0 0 C0.66 0 1.32 0 2 0 C2 5.61 2 11.22 2 17 C-2.62 17 -7.24 17 -12 17 C-11.67 15.68 -11.34 14.36 -11 13 C-10.67 13.66 -10.34 14.32 -10 15 C-4.555 14.505 -4.555 14.505 1 14 C0.67 9.38 0.34 4.76 0 0 Z " fill="#3467AE" transform="translate(136,8)"/>
<path d="M0 0 C0.33 0 0.66 0 1 0 C1 2.31 1 4.62 1 7 C4.96 7 8.92 7 13 7 C13 7.99 13 8.98 13 10 C8.38 10 3.76 10 -1 10 C-0.67 6.7 -0.34 3.4 0 0 Z " fill="#386CAE" transform="translate(89,15)"/>
<path d="M0 0 C4.62 0 9.24 0 14 0 C14 1.65 14 3.3 14 5 C12.02 5.99 12.02 5.99 10 7 C10.33 5.35 10.66 3.7 11 2 C6.545 2.495 6.545 2.495 2 3 C1.67 5.31 1.34 7.62 1 10 C0.67 10 0.34 10 0 10 C0 6.7 0 3.4 0 0 Z " fill="#3467A8" transform="translate(142,12)"/>
<path d="M0 0 C4.62 0 9.24 0 14 0 C14 4.29 14 8.58 14 13 C11.70366176 9.55549263 11.45983515 7.06187717 11 3 C7.37 2.67 3.74 2.34 0 2 C0 1.34 0 0.68 0 0 Z " fill="#3466AC" transform="translate(33,12)"/>
<path d="M0 0 C0.33 0.66 0.66 1.32 1 2 C4.63 2 8.26 2 12 2 C12 2.33 12 2.66 12 3 C9.03 3 6.06 3 3 3 C3 5.31 3 7.62 3 10 C2.34 10 1.68 10 1 10 C0.67 10.99 0.34 11.98 0 13 C0 8.71 0 4.42 0 0 Z " fill="#627BB0" transform="translate(105,12)"/>
<path d="M0 0 C0.33 0.66 0.66 1.32 1 2 C4.63 2 8.26 2 12 2 C12 2.33 12 2.66 12 3 C9.03 3 6.06 3 3 3 C3 5.31 3 7.62 3 10 C2.34 10 1.68 10 1 10 C0.67 10.99 0.34 11.98 0 13 C0 8.71 0 4.42 0 0 Z " fill="#627BB0" transform="translate(69,12)"/>
<path d="M0 0 C0.99 0 1.98 0 3 0 C3 3.96 3 7.92 3 12 C2.01 12 1.02 12 0 12 C0 8.04 0 4.08 0 0 Z " fill="#607CB3" transform="translate(8,13)"/>
<path d="M0 0 C2.64 0 5.28 0 8 0 C5.42215154 2.64752004 3.08351902 4.94432065 0 7 C0 4.69 0 2.38 0 0 Z " fill="#F1F6F5" transform="translate(144,15)"/>
<path d="M0 0 C0.33 0 0.66 0 1 0 C1 2.31 1 4.62 1 7 C-1.64 7 -4.28 7 -7 7 C-4.66666667 4.66666667 -2.33333333 2.33333333 0 0 Z " fill="#F2FAFB" transform="translate(134,15)"/>
<path d="M0 0 C4.29 0 8.58 0 13 0 C13 0.99 13 1.98 13 3 C8.71 2.67 4.42 2.34 0 2 C0 1.34 0 0.68 0 0 Z " fill="#3364A3" transform="translate(106,12)"/>
<path d="M0 0 C4.29 0 8.58 0 13 0 C13 0.99 13 1.98 13 3 C8.71 2.67 4.42 2.34 0 2 C0 1.34 0 0.68 0 0 Z " fill="#3364A3" transform="translate(70,12)"/>
<path d="M0 0 C2.97 0 5.94 0 9 0 C8.67 1.98 8.34 3.96 8 6 C7.01 6 6.02 6 5 6 C5.66 4.68 6.32 3.36 7 2 C4.69 1.67 2.38 1.34 0 1 C0 0.67 0 0.34 0 0 Z " fill="#527AB0" transform="translate(144,14)"/>
</svg>
