<?xml version="1.0" encoding="UTF-8"?>
<svg version="1.1" xmlns="http://www.w3.org/2000/svg" width="173" height="21">
<path d="M0 0 C57.09 0 114.18 0 173 0 C173 6.93 173 13.86 173 21 C115.91 21 58.82 21 0 21 C0 14.07 0 7.14 0 0 Z " fill="#FBFEFE" transform="translate(0,0)"/>
<path d="M0 0 C4.95 0 9.9 0 15 0 C15 4.29 15 8.58 15 13 C11.04 13 7.08 13 3 13 C3 13.99 3 14.98 3 16 C2.01 16 1.02 16 0 16 C0 10.72 0 5.44 0 0 Z " fill="#5A72A6" transform="translate(22,5)"/>
<path d="M0 0 C4.95 0 9.9 0 15 0 C15 4.29 15 8.58 15 13 C10.05 13 5.1 13 0 13 C0 8.71 0 4.42 0 0 Z " fill="#5473A9" transform="translate(95,5)"/>
<path d="M0 0 C4.95 0 9.9 0 15 0 C15 1.65 15 3.3 15 5 C12.5 7.3125 12.5 7.3125 10 9 C11.65 9.33 13.3 9.66 15 10 C15 10.99 15 11.98 15 13 C10.05 13 5.1 13 0 13 C0 8.71 0 4.42 0 0 Z " fill="#506FA7" transform="translate(4,5)"/>
<path d="M0 0 C4.95 0 9.9 0 15 0 C15 0.99 15 1.98 15 3 C11.04 3 7.08 3 3 3 C3 3.66 3 4.32 3 5 C6.96 5 10.92 5 15 5 C15 7.64 15 10.28 15 13 C10.05 13 5.1 13 0 13 C0 12.01 0 11.02 0 10 C3.96 10 7.92 10 12 10 C12 9.34 12 8.68 12 8 C8.04 8 4.08 8 0 8 C0 5.36 0 2.72 0 0 Z " fill="#3E6AA8" transform="translate(150,5)"/>
<path d="M0 0 C0.99 0 1.98 0 3 0 C3 1.32 3 2.64 3 4 C6.96 4 10.92 4 15 4 C15 4.99 15 5.98 15 7 C11.04 7 7.08 7 3 7 C3 9.31 3 11.62 3 14 C6.96 14 10.92 14 15 14 C15 14.99 15 15.98 15 17 C10.05 17 5.1 17 0 17 C0 11.39 0 5.78 0 0 Z " fill="#3A6EAF" transform="translate(77,1)"/>
<path d="M0 0 C4.95 0 9.9 0 15 0 C15 0.99 15 1.98 15 3 C11.04 3 7.08 3 3 3 C3 5.31 3 7.62 3 10 C6.96 10 10.92 10 15 10 C15 10.99 15 11.98 15 13 C10.05 13 5.1 13 0 13 C0 8.71 0 4.42 0 0 Z " fill="#5171A8" transform="translate(46,5)"/>
<path d="M0 0 C0.99 0 1.98 0 3 0 C3 3.3 3 6.6 3 10 C5.97 10 8.94 10 12 10 C12 6.7 12 3.4 12 0 C12.99 0 13.98 0 15 0 C15 4.29 15 8.58 15 13 C10.05 13 5.1 13 0 13 C0 8.71 0 4.42 0 0 Z " fill="#4E71AD" transform="translate(113,5)"/>
<path d="M0 0 C0.33 0 0.66 0 1 0 C1 3.63 1 7.26 1 11 C0.67 10.34 0.34 9.68 0 9 C-4.29 9 -8.58 9 -13 9 C-13 6.69 -13 4.38 -13 2 C-8.71 2 -4.42 2 0 2 C0 1.34 0 0.68 0 0 Z " fill="#FCFEFF" transform="translate(93,6)"/>
<path d="M0 0 C4.95 0 9.9 0 15 0 C15 0.99 15 1.98 15 3 C11.04 3 7.08 3 3 3 C3 6.3 3 9.6 3 13 C2.01 13 1.02 13 0 13 C0 8.71 0 4.42 0 0 Z " fill="#4C72AD" transform="translate(132,5)"/>
<path d="M0 0 C0.33 0 0.66 0 1 0 C1 4.29 1 8.58 1 13 C-2.96 13 -6.92 13 -11 13 C-11 13.99 -11 14.98 -11 16 C-11.66 16 -12.32 16 -13 16 C-12.67 11.71 -12.34 7.42 -12 3 C-11.67 3 -11.34 3 -11 3 C-11 5.31 -11 7.62 -11 10 C-7.37 10 -3.74 10 0 10 C0 6.7 0 3.4 0 0 Z " fill="#376CB2" transform="translate(36,5)"/>
<path d="M0 0 C4.95 0 9.9 0 15 0 C15 0.99 15 1.98 15 3 C11.04 3 7.08 3 3 3 C3 3.66 3 4.32 3 5 C2.34 5 1.68 5 1 5 C1 5.66 1 6.32 1 7 C4.63 7 8.26 7 12 7 C12 7.33 12 7.66 12 8 C8.04 8 4.08 8 0 8 C0 5.36 0 2.72 0 0 Z " fill="#5076AE" transform="translate(150,5)"/>
<path d="M0 0 C2.97 0 5.94 0 9 0 C9 2.31 9 4.62 9 7 C6.03 7 3.06 7 0 7 C0 4.69 0 2.38 0 0 Z " fill="#FAFEFD" transform="translate(98,8)"/>
<path d="M0 0 C2.97 0 5.94 0 9 0 C9 2.31 9 4.62 9 7 C6.03 7 3.06 7 0 7 C0 4.69 0 2.38 0 0 Z " fill="#FAFEFD" transform="translate(25,8)"/>
<path d="M0 0 C0.33 0 0.66 0 1 0 C1 4.62 1 9.24 1 14 C5.62 14 10.24 14 15 14 C15 14.99 15 15.98 15 17 C10.05 17 5.1 17 0 17 C0 11.39 0 5.78 0 0 Z " fill="#5772A7" transform="translate(77,1)"/>
<path d="M0 0 C4.62 0 9.24 0 14 0 C14 1.65 14 3.3 14 5 C13.01 5 12.02 5 11 5 C11 4.01 11 3.02 11 2 C8.03 2 5.06 2 2 2 C2 4.64 2 7.28 2 10 C1.34 10 0.68 10 0 10 C0 6.7 0 3.4 0 0 Z " fill="#356AAD" transform="translate(5,5)"/>
<path d="M0 0 C0.33 0 0.66 0 1 0 C1 4.29 1 8.58 1 13 C-3.62 13 -8.24 13 -13 13 C-13 12.01 -13 11.02 -13 10 C-8.71 10 -4.42 10 0 10 C0 6.7 0 3.4 0 0 Z " fill="#3769AD" transform="translate(109,5)"/>
<path d="M0 0 C0.33 0 0.66 0 1 0 C1 2.31 1 4.62 1 7 C4.96 7 8.92 7 13 7 C13 7.99 13 8.98 13 10 C8.38 10 3.76 10 -1 10 C-0.67 6.7 -0.34 3.4 0 0 Z " fill="#386CAE" transform="translate(48,8)"/>
<path d="M0 0 C0.99 0 1.98 0 3 0 C3 3.96 3 7.92 3 12 C2.01 12 1.02 12 0 12 C0 8.04 0 4.08 0 0 Z " fill="#607CB4" transform="translate(40,6)"/>
<path d="M0 0 C2.64 0 5.28 0 8 0 C5.42215154 2.64752004 3.08351902 4.94432065 0 7 C0 4.69 0 2.38 0 0 Z " fill="#F1F6F5" transform="translate(7,8)"/>
<path d="M0 0 C2.97 0 5.94 0 9 0 C9.33 1.32 9.66 2.64 10 4 C8.68 4.99 7.36 5.98 6 7 C6 3 6 3 7 2 C4.69 1.67 2.38 1.34 0 1 C0 0.67 0 0.34 0 0 Z " fill="#4F79B1" transform="translate(7,7)"/>
</svg>
